<?xml version="1.0" encoding="UTF-8"?> <svg xmlns="http://www.w3.org/2000/svg" width="466" height="90" viewBox="0 0 466 90" fill="none"><path d="M25.2499 34.4087C26.4211 36.1677 27.0277 38.2295 27.0598 40.5488C24.9339 39.6217 23.2677 38.266 22.0964 36.5058C20.9263 34.7457 20.3197 32.685 20.2865 30.3657C22.4124 31.2917 24.0798 32.6485 25.2499 34.4087ZM27.5139 42.2647C27.5913 42.2935 27.673 42.3067 27.7537 42.3067C27.8929 42.3067 28.031 42.2658 28.1503 42.1874C28.3382 42.0625 28.4564 41.8559 28.4686 41.6305C28.6354 38.5853 27.9537 35.8882 26.4421 33.6153C24.9306 31.3425 22.7063 29.6729 19.8335 28.6498C19.6203 28.5724 19.3849 28.6023 19.1971 28.7271C19.0092 28.852 18.891 29.0586 18.8789 29.284C18.712 32.3292 19.3938 35.0263 20.9053 37.2981C22.4169 39.5709 24.64 41.2416 27.5139 42.2647ZM64.7512 34.4087C65.9213 32.6485 67.5887 31.2917 69.7146 30.3657C69.6814 32.685 69.0748 34.7457 67.9036 36.5058C66.7335 38.266 65.0672 39.6217 62.9402 40.5488C62.9734 38.2295 63.58 36.1677 64.7512 34.4087ZM61.8497 42.1874C61.9701 42.2658 62.1071 42.3067 62.2474 42.3067C62.3281 42.3067 62.4087 42.2935 62.4872 42.2647C65.36 41.2416 67.5843 39.5709 69.0947 37.2981C70.6073 35.0263 71.2891 32.3292 71.1222 29.284C71.1101 29.0586 70.9919 28.852 70.804 28.7271C70.6162 28.6023 70.3808 28.5724 70.1676 28.6498C67.2948 29.6729 65.0705 31.3425 63.559 33.6153C62.0474 35.8882 61.3646 38.5853 61.5325 41.6305C61.5447 41.8559 61.6629 42.0625 61.8497 42.1874ZM39.2571 78.4303C39.2582 78.4159 39.2593 78.4015 39.2604 78.3872C39.2792 78.1684 39.2969 77.9518 39.3179 77.733C39.4162 76.6491 39.5345 75.5961 39.6715 74.5741C39.7411 74.0636 39.8151 73.5597 39.8936 73.0647C39.9333 72.8172 39.9742 72.5708 40.0162 72.3266C40.151 71.541 40.3002 70.7764 40.4626 70.0306C41.1035 67.0694 41.952 64.4131 43.0172 62.0397C43.026 62.0198 43.036 61.9999 43.0448 61.9789C43.5034 60.9624 44.0017 60 44.5398 59.0862C44.8746 58.5172 45.2237 57.9669 45.5884 57.4377C45.5895 57.4377 45.5895 57.4377 45.5895 57.4377C45.784 57.1548 45.9828 56.8797 46.185 56.609C49.2192 52.5539 53.1704 49.7915 58.5415 47.9585C58.6741 47.912 58.8034 47.869 58.9326 47.8259C62.6099 46.6138 66.3721 46.0016 70.0085 45.4094C73.8857 44.7774 77.4027 44.205 80.2644 43.0117C78.6899 45.6823 77.6402 49.0866 76.4812 52.84C73.1829 63.5258 69.445 75.6381 51.397 78.3363C51.3407 78.3452 51.281 78.354 51.2036 78.364C50.9815 78.3982 50.7572 78.4281 50.5329 78.459C48.7993 78.6844 46.9386 78.8192 45.0006 78.8612C43.247 78.8236 41.5487 78.7087 39.9521 78.5187C39.7234 78.4921 39.4936 78.4623 39.2571 78.4303ZM13.5199 52.84C12.3609 49.0866 11.3112 45.6834 9.73555 43.0117C12.5984 44.205 16.1132 44.7774 19.9904 45.4083C23.5969 45.9961 27.3272 46.6027 30.979 47.7971C31.1392 47.848 31.2994 47.901 31.4629 47.9574C31.8154 48.0778 32.1612 48.2026 32.5016 48.3319C32.6154 48.3739 32.7248 48.4203 32.8375 48.4645C33.0618 48.5518 33.2872 48.6391 33.5059 48.7308C33.6363 48.7849 33.7623 48.8424 33.8905 48.8976C34.086 48.9827 34.2838 49.0667 34.475 49.1551C34.6098 49.2159 34.7391 49.2811 34.8705 49.344C35.0506 49.4302 35.233 49.5164 35.4097 49.6048C35.5445 49.6722 35.6738 49.7429 35.8053 49.8114C35.9755 49.9009 36.1456 49.9893 36.3114 50.081C36.444 50.154 36.5721 50.2302 36.7014 50.3053C36.8616 50.3981 37.0229 50.4899 37.181 50.5838C37.3102 50.6622 37.4351 50.744 37.5622 50.8246C37.7157 50.9208 37.8693 51.0158 38.0185 51.1163C38.1433 51.1992 38.266 51.2854 38.3897 51.3705C38.5356 51.471 38.6826 51.5716 38.8251 51.6754C38.9477 51.7638 39.066 51.8544 39.1864 51.945C39.3256 52.05 39.466 52.155 39.6019 52.2644C39.7212 52.3572 39.8361 52.4533 39.9521 52.5494C40.0858 52.6599 40.2195 52.7693 40.3499 52.882C40.4648 52.9804 40.5764 53.082 40.6891 53.1837C40.8173 53.2975 40.9443 53.4124 41.0692 53.5295C41.1808 53.6345 41.2891 53.7417 41.3985 53.8477C41.52 53.9671 41.6416 54.0864 41.762 54.2091C41.8692 54.3184 41.9741 54.4311 42.0791 54.5427C42.1962 54.6676 42.3123 54.7925 42.4272 54.9195C42.531 55.0344 42.6327 55.1516 42.7343 55.2698C42.8459 55.3991 42.9575 55.5294 43.0669 55.662C43.1675 55.7825 43.2658 55.9062 43.3641 56.0289C43.4702 56.1637 43.5774 56.2985 43.6824 56.4366C43.7785 56.5637 43.8735 56.6907 43.9685 56.8211C44.0227 56.894 44.0746 56.9692 44.1277 57.0432C44.1243 57.0498 44.1199 57.0565 44.1155 57.0642C43.921 57.3559 43.7321 57.6553 43.5465 57.9592C43.5277 57.9912 43.5078 58.0222 43.4879 58.0553C43.3067 58.3548 43.1299 58.6608 42.9575 58.9702C42.9354 59.0089 42.9144 59.0453 42.8934 59.084C42.7233 59.3912 42.5587 59.705 42.3973 60.0221C42.3752 60.0652 42.3531 60.1083 42.331 60.1525C42.1719 60.4685 42.0172 60.79 41.867 61.1149C41.8449 61.1635 41.8228 61.211 41.8007 61.2596C41.6526 61.5845 41.5079 61.9148 41.3675 62.2496C41.3465 62.3016 41.3244 62.3535 41.3035 62.4054C41.1642 62.7413 41.0294 63.0817 40.899 63.4264C40.8781 63.4816 40.8582 63.5358 40.8372 63.591C40.7079 63.9369 40.583 64.2893 40.4615 64.6462C40.4416 64.7026 40.4228 64.76 40.4029 64.8164C40.2825 65.1744 40.1665 65.5379 40.0538 65.907C40.0361 65.9655 40.0184 66.023 40.0007 66.0815C39.8891 66.4539 39.7809 66.8307 39.677 67.213C39.6604 67.2705 39.645 67.329 39.6295 67.3876C39.5267 67.7743 39.4262 68.1643 39.33 68.561C39.3168 68.6185 39.3035 68.6759 39.2903 68.7323C39.1941 69.1345 39.1024 69.5411 39.0151 69.9543C39.003 70.0085 38.993 70.0637 38.9809 70.1179C38.8936 70.5366 38.8096 70.962 38.7301 71.393C38.7212 71.4427 38.7124 71.4924 38.7035 71.541C38.6229 71.9808 38.5466 72.425 38.4748 72.8769C38.4682 72.9189 38.4627 72.9608 38.456 73.0017C38.3831 73.4636 38.3146 73.931 38.2505 74.405C38.2461 74.437 38.2428 74.4713 38.2384 74.5033C38.1732 74.9895 38.1124 75.4812 38.0561 75.9806C38.0538 75.9994 38.0527 76.0182 38.0505 76.037C37.9931 76.5519 37.94 77.0734 37.8925 77.6027C37.8737 77.8038 37.8561 78.0049 37.8395 78.206C37.8395 78.2082 37.8384 78.2126 37.8384 78.2148C20.4501 75.2945 16.7718 63.3734 13.5199 52.84ZM45.0006 29.4917C50.8479 33.243 55.3438 39.5113 57.4399 46.8292C57.3548 46.8602 57.2741 46.8933 57.1902 46.9242C57.041 46.9795 56.8951 47.0347 56.7482 47.0922C56.5504 47.1695 56.3537 47.248 56.1582 47.3275C56.0167 47.3861 55.8742 47.4447 55.7328 47.5054C55.5383 47.5894 55.346 47.6745 55.1538 47.7618C55.019 47.8225 54.8842 47.8822 54.7505 47.9452C54.5538 48.0369 54.3615 48.133 54.1682 48.2292C54.0455 48.2899 53.9218 48.3496 53.8013 48.4115C53.5903 48.5198 53.3848 48.6325 53.1793 48.7441C53.0798 48.7982 52.9804 48.8501 52.882 48.9043C52.5848 49.0733 52.292 49.2435 52.0036 49.4203C51.9992 49.4225 51.997 49.4236 51.9948 49.4258C51.702 49.6059 51.4158 49.7904 51.1329 49.9783C51.0456 50.0368 50.9617 50.0987 50.8744 50.1584C50.6832 50.2899 50.491 50.4213 50.3042 50.5584C50.2004 50.6335 50.0987 50.7119 49.9959 50.7893C49.8313 50.913 49.6645 51.039 49.5031 51.1672C49.396 51.2523 49.291 51.3395 49.1838 51.4257C49.0313 51.5506 48.88 51.6766 48.7297 51.8047C48.6236 51.8975 48.5187 51.9904 48.4137 52.0832C48.2678 52.2124 48.1253 52.3428 47.9839 52.4743C47.88 52.5715 47.7772 52.6688 47.6767 52.766C47.5364 52.9008 47.3994 53.0378 47.2635 53.1748C47.1651 53.2754 47.0657 53.3759 46.9684 53.4776C46.8325 53.6201 46.6988 53.766 46.5651 53.9118C46.4734 54.0135 46.3806 54.114 46.29 54.2168C46.153 54.3715 46.0182 54.5328 45.8845 54.693C45.8038 54.7891 45.7199 54.8853 45.6403 54.9836C45.4867 55.1737 45.3365 55.367 45.1884 55.5615C45.132 55.6344 45.0735 55.7073 45.0171 55.7814C45.0116 55.7891 45.0061 55.7957 45.0006 55.8035C44.9939 55.7957 44.9884 55.7891 44.9818 55.7803C44.9298 55.7107 44.8746 55.6433 44.8216 55.5736C44.6691 55.3748 44.5166 55.177 44.3597 54.9836C44.2812 54.8875 44.2006 54.7936 44.1199 54.6974C43.9851 54.5361 43.8492 54.3748 43.7111 54.2168C43.6205 54.1151 43.5277 54.0135 43.436 53.9129C43.3034 53.7671 43.1697 53.6212 43.0338 53.4798C42.9365 53.377 42.8371 53.2754 42.7377 53.1748C42.6028 53.0378 42.4658 52.903 42.3277 52.7693C42.225 52.6699 42.12 52.5715 42.0161 52.4732C41.8758 52.3439 41.7355 52.2146 41.5929 52.0887C41.4847 51.9926 41.3775 51.8975 41.2681 51.8036C41.1222 51.6788 40.9731 51.555 40.825 51.4324C40.7156 51.344 40.6062 51.2534 40.4946 51.165C40.3388 51.0412 40.1786 50.9208 40.0195 50.8003C39.9112 50.7186 39.8041 50.6368 39.6936 50.5561C39.5168 50.428 39.3356 50.3031 39.1555 50.1783C39.0582 50.112 38.9632 50.0424 38.8649 49.9761C38.5942 49.796 38.3201 49.6203 38.0417 49.4479C38.0008 49.4236 37.9577 49.3993 37.9168 49.3739C37.6572 49.2148 37.3942 49.0601 37.1257 48.9087C37.0152 48.8468 36.9025 48.7883 36.792 48.7286C36.5975 48.6214 36.4042 48.5164 36.2075 48.4148C36.0782 48.3485 35.9467 48.2855 35.8164 48.2203C35.6307 48.1286 35.4462 48.0369 35.2573 47.9474C35.1191 47.8833 34.9777 47.8192 34.8374 47.7563C34.6518 47.6723 34.4639 47.5894 34.275 47.5076C34.1302 47.4458 33.9833 47.3839 33.8374 47.3242C33.6452 47.2458 33.4529 47.1684 33.2584 47.0933C33.1104 47.0347 32.9612 46.9784 32.8109 46.9231C32.727 46.8911 32.6463 46.8579 32.5612 46.827C34.6595 39.5079 39.1555 33.2397 45.0006 29.4917ZM76.8204 13.1807C68.3212 4.6816 57.0211 0 45.0006 0C32.98 0 21.6799 4.6816 13.1807 13.1807C4.6816 21.6799 0 32.98 0 45.0006C0 55.6753 3.80428 66.0252 10.7112 74.1442C17.5397 82.1705 26.9891 87.5691 37.3169 89.347C37.7069 89.4144 38.0759 89.1525 38.1433 88.7625C38.2107 88.3735 37.9489 88.0034 37.5599 87.9371C16.6259 84.335 1.43199 66.2771 1.43199 45.0006C1.43199 20.9771 20.976 1.43089 45.0006 1.43089C69.024 1.43089 88.5691 20.9771 88.5691 45.0006C88.5691 68.7842 69.4107 88.1758 45.7154 88.5603V80.2733C47.459 80.2158 49.1385 80.0821 50.7186 79.8766C50.955 79.8457 51.1893 79.8147 51.4014 79.7816C51.4732 79.7728 51.5462 79.7617 51.6147 79.7518C70.5455 76.9209 74.595 63.8021 77.8491 53.261C79.4788 47.9806 80.8865 43.4194 83.7925 40.8891C84.0897 40.6294 84.1218 40.1775 83.861 39.8792C83.6024 39.582 83.1505 39.5499 82.8522 39.8096C82.8522 39.8107 82.85 39.8107 82.8489 39.8118C79.9429 42.3399 75.2326 43.1078 69.7797 43.9962C66.1887 44.5807 62.4784 45.1873 58.7956 46.3662C56.5482 38.5831 51.6887 31.9314 45.3762 28.0376C45.1464 27.8951 44.8547 27.8951 44.6249 28.0376C38.3135 31.9292 33.454 38.5809 31.2055 46.3662C27.5216 45.1873 23.8113 44.5807 20.2202 43.9962C14.7663 43.1078 10.056 42.3399 7.15001 39.8107L7.14891 39.8096C6.85058 39.5499 6.39866 39.582 6.139 39.8792C5.87934 40.1775 5.91028 40.6294 6.20861 40.8891C9.11458 43.4194 10.5223 47.9806 12.152 53.261C15.405 63.801 19.4534 76.9165 38.3787 79.7506C38.3798 79.7506 38.3798 79.7506 38.3798 79.7506L38.5798 79.7805C39.0019 79.8424 39.3963 79.8943 39.7842 79.9396C41.2151 80.1098 42.7288 80.218 44.2846 80.27V89.2851C44.2846 89.631 44.5299 89.9193 44.8558 89.9856C44.9022 89.9956 44.9508 90 45.0006 90C57.0211 90 68.3212 85.3195 76.8204 76.8204C85.3195 68.3212 90 57.02 90 45.0006C90 32.98 85.3195 21.6799 76.8204 13.1807Z" fill="black"></path><path d="M100.295 61V60.415C101.645 60.01 102.095 58.975 102.095 55.285V35.215C102.095 31.525 101.645 30.49 100.295 30.085V29.5H110.825C117.755 29.5 120.59 31.795 120.59 35.44C120.59 38.5 118.61 41.29 113.48 42.235C120.815 42.595 124.055 46.24 124.1 50.65C124.19 55.69 120.41 61 109.475 61H100.295ZM105.785 56.41C105.785 59.65 106.19 60.325 108.125 60.325H109.88C117.215 60.325 120.005 56.77 120.005 51.775C120.005 46.6 117.125 42.82 110.375 42.82H105.785V56.41ZM105.785 42.145H109.97C114.425 42.145 116.495 39.535 116.495 36.25C116.495 32.515 113.84 30.175 109.205 30.175H105.785V42.145ZM137.839 61.45C132.889 61.45 127.174 57.85 127.174 50.425C127.174 43.09 132.709 38.185 139.009 38.185C144.679 38.185 147.964 41.875 148.099 46.15H130.504C130.414 46.825 130.369 47.5 130.369 48.22C130.369 54.385 134.194 58.615 140.044 58.615C143.509 58.615 145.984 57.04 148.054 54.7L148.459 55.105C146.164 58.255 142.654 61.45 137.839 61.45ZM130.639 45.565H144.499C144.049 42.55 141.619 38.995 137.524 38.995C133.699 38.95 131.359 41.785 130.639 45.565ZM168.139 61C167.239 61 166.789 60.505 166.789 59.65V51.55C165.394 57.085 161.614 61.45 157.159 61.45C153.829 61.45 150.859 59.425 150.859 55.555C150.859 50.875 155.584 49.12 160.939 47.635L166.789 46.06C166.564 41.695 164.314 39.67 160.489 39.67C157.789 39.67 155.179 40.93 152.929 43.675L152.524 43.315C155.089 40.12 158.374 38.185 162.289 38.185C167.734 38.185 170.254 41.2 170.254 46.285V55.285C170.254 58.975 170.659 60.01 172.054 60.415V61H168.139ZM154.234 54.295C154.234 57.22 156.259 58.795 158.824 58.795C163.639 58.795 166.744 52.72 166.789 47.995V46.735V46.645L161.119 48.175C157.789 49.12 154.189 50.605 154.234 54.295ZM182.956 61.45C178.231 61.45 176.071 58.435 176.071 53.26V44.935C176.071 41.785 175.486 41.335 174.271 40.795V40.3L179.176 38.14L179.581 38.455V52.45C179.581 57.58 181.021 59.875 184.621 59.875C187.276 59.875 189.706 58.21 191.731 56.05V44.935C191.731 41.785 191.146 41.335 189.931 40.795V40.3L194.836 38.14L195.241 38.455V55.285C195.241 58.975 195.646 60.01 197.041 60.415V61H193.216C192.226 61 191.731 60.505 191.731 59.2V56.905C189.436 59.29 186.331 61.45 182.956 61.45ZM207.14 61.45C204.305 61.45 202.595 59.695 202.595 55.015V39.13H199.715V38.5L205.475 32.965H206.105V38.5H212.945L212.72 39.13H206.105V55.015C206.105 58.075 207.365 59.245 209.3 59.245C210.56 59.245 212.135 58.66 213.62 56.905L214.025 57.31C212.09 59.515 209.795 61.45 207.14 61.45ZM215.454 69.685C213.699 69.73 212.394 69.145 212.394 68.425C212.394 67.57 213.519 65.95 215.184 65.95C216.354 65.95 218.784 66.625 220.854 66.985C222.429 65.635 223.824 63.43 224.949 61.09L217.569 43.765C216.174 40.39 215.049 39.49 214.104 39.085V38.5H220.899V39.085C219.549 39.49 219.909 40.39 221.349 43.765L226.884 56.635L232.419 43.765C233.679 40.84 233.589 39.4 232.014 39.085V38.5H237.009V39.085C235.749 39.49 234.579 40.39 233.094 43.765L226.119 59.875C222.294 68.695 218.334 69.64 215.454 69.685ZM265.533 61.45C255.183 61.45 248.568 55.69 248.568 45.88C248.568 36.295 255.993 29.185 266.568 29.185C270.438 29.185 274.938 30.31 276.693 31.435L276.873 36.79L276.423 36.88C274.668 32.785 270.393 30.04 265.038 30.04C257.883 30.04 252.348 34.81 252.348 43.99C252.303 52.45 257.433 60.55 266.793 60.55C271.653 60.55 275.433 57.985 277.188 53.125L277.683 53.17L276.963 59.02C274.848 60.19 270.573 61.45 265.533 61.45ZM292.992 61.45C287.277 61.45 281.202 57.895 281.202 50.065C281.202 43.045 286.827 38.185 292.992 38.185C298.572 38.185 304.737 41.605 304.737 49.615C304.737 57.31 298.302 61.45 292.992 61.45ZM284.667 47.5C284.667 53.215 288.357 60.505 294.342 60.505C299.157 60.505 301.317 56.635 301.317 52.27C301.317 46.465 297.222 38.725 291.327 39.04C286.737 39.22 284.667 43 284.667 47.5ZM316.822 61.405C313.222 61.405 310.117 60.325 308.632 59.335L308.227 53.89L308.632 53.8C310.522 58.075 313.717 60.64 317.812 60.685C320.602 60.685 322.672 59.02 322.672 56.5C322.672 53.26 319.522 52.225 316.057 51.1C311.782 49.75 308.722 48.58 308.722 44.485C308.722 40.93 311.692 38.185 316.912 38.185C319.837 38.185 322.492 38.815 323.887 39.4L324.067 43.99L323.617 44.08C322.177 40.84 319.297 38.77 316.102 38.77C313.042 38.77 311.062 40.255 311.062 42.55C311.062 45.385 313.942 46.555 317.497 47.725C320.917 48.85 325.057 49.885 325.057 54.385C325.057 58.165 322.222 61.36 316.822 61.405ZM328.131 61V60.415C329.526 60.01 329.931 58.975 329.931 55.285V44.935C329.931 41.785 329.346 41.335 328.131 40.795V40.3L333.036 38.14L333.441 38.455V42.28C336.141 40.12 339.516 38.185 342.756 38.185C346.086 38.185 348.201 39.535 349.011 42.415C351.711 40.255 355.176 38.185 358.551 38.185C362.916 38.185 365.166 40.57 365.166 45.655V55.285C365.166 58.975 365.616 60.01 366.966 60.415V61H359.856V60.415C361.251 60.01 361.656 58.975 361.656 55.285V46.465C361.656 42.01 360.036 39.67 356.526 39.67C353.961 39.67 351.621 41.065 349.146 43C349.326 43.765 349.416 44.665 349.416 45.655V55.285C349.416 58.975 349.821 60.01 351.216 60.415V61H344.106V60.415C345.456 60.01 345.906 58.975 345.906 55.285V46.465C345.906 42.01 344.241 39.67 340.776 39.67C338.211 39.67 335.871 41.065 333.441 42.91V55.285C333.441 58.975 333.846 60.01 335.241 60.415V61H328.131ZM380.197 61.45C375.247 61.45 369.532 57.85 369.532 50.425C369.532 43.09 375.067 38.185 381.367 38.185C387.037 38.185 390.322 41.875 390.457 46.15H372.862C372.772 46.825 372.727 47.5 372.727 48.22C372.727 54.385 376.552 58.615 382.402 58.615C385.867 58.615 388.342 57.04 390.412 54.7L390.817 55.105C388.522 58.255 385.012 61.45 380.197 61.45ZM372.997 45.565H386.857C386.407 42.55 383.977 38.995 379.882 38.995C376.057 38.95 373.717 41.785 372.997 45.565ZM400.587 61.45C397.752 61.45 396.042 59.695 396.042 55.015V39.13H393.162V38.5L398.922 32.965H399.552V38.5H406.392L406.167 39.13H399.552V55.015C399.552 58.075 400.812 59.245 402.747 59.245C404.007 59.245 405.582 58.66 407.067 56.905L407.472 57.31C405.537 59.515 403.242 61.45 400.587 61.45ZM408.991 61V60.415C410.386 60.01 410.791 58.975 410.791 55.285V44.935C410.791 41.785 410.251 41.335 408.991 40.795V40.3L413.941 38.14L414.301 38.455V55.285C414.301 58.975 414.751 60.01 416.101 60.415V61H408.991ZM409.801 32.92C409.801 31.48 410.881 30.4 412.276 30.4C413.716 30.4 414.751 31.48 414.751 32.92C414.751 34.27 413.671 35.395 412.276 35.395C410.881 35.395 409.801 34.27 409.801 32.92ZM429.943 61.45C424.723 61.45 419.278 57.67 419.278 50.425C419.278 43.315 424.948 38.185 431.518 38.185C435.838 38.185 439.168 39.4 439.168 40.615C439.168 41.65 437.773 43.045 436.333 43.045C435.208 43.045 433.093 41.74 429.493 38.905C425.308 39.625 422.473 43.36 422.473 48.22C422.473 54.385 426.298 58.615 432.148 58.615C435.613 58.615 438.088 57.04 440.158 54.7L440.563 55.105C438.268 58.255 434.758 61.45 429.943 61.45ZM451.647 61.405C448.047 61.405 444.942 60.325 443.457 59.335L443.052 53.89L443.457 53.8C445.347 58.075 448.542 60.64 452.637 60.685C455.427 60.685 457.497 59.02 457.497 56.5C457.497 53.26 454.347 52.225 450.882 51.1C446.607 49.75 443.547 48.58 443.547 44.485C443.547 40.93 446.517 38.185 451.737 38.185C454.662 38.185 457.317 38.815 458.712 39.4L458.892 43.99L458.442 44.08C457.002 40.84 454.122 38.77 450.927 38.77C447.867 38.77 445.887 40.255 445.887 42.55C445.887 45.385 448.767 46.555 452.322 47.725C455.742 48.85 459.882 49.885 459.882 54.385C459.882 58.165 457.047 61.36 451.647 61.405Z" fill="black"></path><path d="M102.853 86V74.1H113.104V86H111.438V75.137L111.846 75.579H104.111L104.536 75.137V86H102.853ZM116.815 86V74.1H121.456C122.499 74.1 123.388 74.2643 124.125 74.593C124.862 74.9217 125.428 75.3977 125.825 76.021C126.222 76.6443 126.42 77.3867 126.42 78.248C126.42 79.1093 126.222 79.8517 125.825 80.475C125.428 81.087 124.862 81.563 124.125 81.903C123.388 82.2317 122.499 82.396 121.456 82.396H117.75L118.515 81.597V86H116.815ZM118.515 81.767L117.75 80.917H121.405C122.493 80.917 123.315 80.6847 123.87 80.22C124.437 79.7553 124.72 79.098 124.72 78.248C124.72 77.398 124.437 76.7407 123.87 76.276C123.315 75.8113 122.493 75.579 121.405 75.579H117.75L118.515 74.729V81.767ZM134.306 86.136C133.399 86.136 132.555 85.983 131.773 85.677C131.002 85.371 130.333 84.946 129.767 84.402C129.2 83.8467 128.758 83.2007 128.441 82.464C128.123 81.7273 127.965 80.9227 127.965 80.05C127.965 79.1773 128.123 78.3727 128.441 77.636C128.758 76.8993 129.2 76.259 129.767 75.715C130.333 75.1597 131.002 74.729 131.773 74.423C132.543 74.117 133.388 73.964 134.306 73.964C135.212 73.964 136.045 74.117 136.805 74.423C137.575 74.7177 138.244 75.1427 138.811 75.698C139.389 76.242 139.831 76.8823 140.137 77.619C140.454 78.3557 140.613 79.166 140.613 80.05C140.613 80.934 140.454 81.7443 140.137 82.481C139.831 83.2177 139.389 83.8637 138.811 84.419C138.244 84.963 137.575 85.388 136.805 85.694C136.045 85.9887 135.212 86.136 134.306 86.136ZM134.306 84.623C134.963 84.623 135.569 84.5097 136.125 84.283C136.691 84.0563 137.179 83.739 137.587 83.331C138.006 82.9117 138.329 82.4243 138.556 81.869C138.794 81.3137 138.913 80.7073 138.913 80.05C138.913 79.3927 138.794 78.7863 138.556 78.231C138.329 77.6757 138.006 77.194 137.587 76.786C137.179 76.3667 136.691 76.0437 136.125 75.817C135.569 75.5903 134.963 75.477 134.306 75.477C133.637 75.477 133.019 75.5903 132.453 75.817C131.897 76.0437 131.41 76.3667 130.991 76.786C130.571 77.194 130.243 77.6757 130.005 78.231C129.778 78.7863 129.665 79.3927 129.665 80.05C129.665 80.7073 129.778 81.3137 130.005 81.869C130.243 82.4243 130.571 82.9117 130.991 83.331C131.41 83.739 131.897 84.0563 132.453 84.283C133.019 84.5097 133.637 84.623 134.306 84.623ZM149.175 85.201C147.724 85.201 146.483 85.0027 145.452 84.606C144.42 84.198 143.633 83.6087 143.089 82.838C142.545 82.0673 142.273 81.1323 142.273 80.033C142.273 78.9337 142.545 77.9987 143.089 77.228C143.633 76.4573 144.42 75.868 145.452 75.46C146.483 75.052 147.724 74.848 149.175 74.848C149.197 74.848 149.237 74.848 149.294 74.848C149.362 74.848 149.424 74.848 149.481 74.848C149.549 74.848 149.588 74.848 149.6 74.848C151.05 74.848 152.286 75.052 153.306 75.46C154.337 75.868 155.125 76.4573 155.669 77.228C156.213 77.9987 156.485 78.9337 156.485 80.033C156.485 81.121 156.213 82.056 155.669 82.838C155.136 83.6087 154.36 84.198 153.34 84.606C152.331 85.0027 151.107 85.201 149.668 85.201C149.645 85.201 149.594 85.201 149.515 85.201C149.447 85.201 149.379 85.201 149.311 85.201C149.243 85.201 149.197 85.201 149.175 85.201ZM149.362 83.875C149.384 83.875 149.413 83.875 149.447 83.875C149.481 83.875 149.498 83.875 149.498 83.875C150.654 83.8637 151.628 83.7163 152.422 83.433C153.215 83.1383 153.816 82.7077 154.224 82.141C154.643 81.563 154.853 80.8547 154.853 80.016C154.853 79.1887 154.643 78.4917 154.224 77.925C153.804 77.3583 153.198 76.9277 152.405 76.633C151.623 76.3383 150.665 76.191 149.532 76.191C149.52 76.191 149.492 76.191 149.447 76.191C149.413 76.191 149.384 76.191 149.362 76.191C148.194 76.191 147.203 76.3383 146.387 76.633C145.582 76.9163 144.97 77.3413 144.551 77.908C144.131 78.4747 143.922 79.183 143.922 80.033C143.922 80.883 144.137 81.5913 144.568 82.158C144.998 82.7247 145.616 83.1553 146.421 83.45C147.237 83.7333 148.217 83.875 149.362 83.875ZM148.597 86.442V73.658H150.178V86.442H148.597ZM160.646 79.234H166.766V80.679H160.646V79.234ZM160.799 84.521H167.735V86H159.099V74.1H167.497V75.579H160.799V84.521ZM175.709 86.136C174.802 86.136 173.964 85.9887 173.193 85.694C172.434 85.388 171.771 84.963 171.204 84.419C170.649 83.8637 170.212 83.2177 169.895 82.481C169.578 81.7443 169.419 80.934 169.419 80.05C169.419 79.166 169.578 78.3557 169.895 77.619C170.212 76.8823 170.654 76.242 171.221 75.698C171.788 75.1427 172.451 74.7177 173.21 74.423C173.981 74.117 174.819 73.964 175.726 73.964C176.644 73.964 177.488 74.1227 178.259 74.44C179.041 74.746 179.704 75.205 180.248 75.817L179.143 76.888C178.69 76.412 178.18 76.0607 177.613 75.834C177.046 75.596 176.44 75.477 175.794 75.477C175.125 75.477 174.502 75.5903 173.924 75.817C173.357 76.0437 172.864 76.361 172.445 76.769C172.026 77.177 171.697 77.6643 171.459 78.231C171.232 78.7863 171.119 79.3927 171.119 80.05C171.119 80.7073 171.232 81.3193 171.459 81.886C171.697 82.4413 172.026 82.923 172.445 83.331C172.864 83.739 173.357 84.0563 173.924 84.283C174.502 84.5097 175.125 84.623 175.794 84.623C176.44 84.623 177.046 84.5097 177.613 84.283C178.18 84.045 178.69 83.6823 179.143 83.195L180.248 84.266C179.704 84.878 179.041 85.3427 178.259 85.66C177.488 85.9773 176.638 86.136 175.709 86.136ZM182.59 86V74.1H184.273V86H182.59ZM187.986 86V74.1H189.669V83.28L196.707 74.1H198.271V86H196.605V76.837L189.55 86H187.986ZM193.103 73.267C192.173 73.267 191.454 73.063 190.944 72.655C190.445 72.247 190.19 71.6747 190.179 70.938H191.386C191.397 71.38 191.556 71.7257 191.862 71.975C192.168 72.213 192.581 72.332 193.103 72.332C193.613 72.332 194.021 72.213 194.327 71.975C194.644 71.7257 194.808 71.38 194.82 70.938H196.01C195.998 71.6747 195.738 72.247 195.228 72.655C194.729 73.063 194.021 73.267 193.103 73.267ZM210.515 74.1H212.215V86H210.515V74.1ZM203.681 86H201.981V74.1H203.681V86ZM210.668 80.696H203.511V79.217H210.668V80.696ZM215.926 86V74.1H217.609V83.28L224.647 74.1H226.211V86H224.545V76.837L217.49 86H215.926ZM229.921 86V74.1H231.604V83.28L238.642 74.1H240.206V86H238.54V76.837L231.485 86H229.921ZM235.038 73.267C234.109 73.267 233.389 73.063 232.879 72.655C232.381 72.247 232.126 71.6747 232.114 70.938H233.321C233.333 71.38 233.491 71.7257 233.797 71.975C234.103 72.213 234.517 72.332 235.038 72.332C235.548 72.332 235.956 72.213 236.262 71.975C236.58 71.7257 236.744 71.38 236.755 70.938H237.945C237.934 71.6747 237.673 72.247 237.163 72.655C236.665 73.063 235.956 73.267 235.038 73.267ZM256.387 85.201V75.579H251.168L251.083 78.078C251.049 78.9167 250.992 79.7213 250.913 80.492C250.845 81.2627 250.743 81.9597 250.607 82.583C250.471 83.195 250.278 83.6993 250.029 84.096C249.791 84.4927 249.485 84.7363 249.111 84.827L247.275 84.521C247.717 84.555 248.08 84.4077 248.363 84.079C248.658 83.739 248.884 83.2687 249.043 82.668C249.213 82.056 249.338 81.3477 249.417 80.543C249.496 79.727 249.553 78.8543 249.587 77.925L249.706 74.1H258.07V85.201H256.387ZM246.85 88.601L246.867 84.521H259.821V88.601H258.24V86H248.448L248.431 88.601H246.85ZM267.5 86.136C266.593 86.136 265.749 85.983 264.967 85.677C264.196 85.371 263.528 84.946 262.961 84.402C262.394 83.8467 261.952 83.2007 261.635 82.464C261.318 81.7273 261.159 80.9227 261.159 80.05C261.159 79.1773 261.318 78.3727 261.635 77.636C261.952 76.8993 262.394 76.259 262.961 75.715C263.528 75.1597 264.196 74.729 264.967 74.423C265.738 74.117 266.582 73.964 267.5 73.964C268.407 73.964 269.24 74.117 269.999 74.423C270.77 74.7177 271.438 75.1427 272.005 75.698C272.583 76.242 273.025 76.8823 273.331 77.619C273.648 78.3557 273.807 79.166 273.807 80.05C273.807 80.934 273.648 81.7443 273.331 82.481C273.025 83.2177 272.583 83.8637 272.005 84.419C271.438 84.963 270.77 85.388 269.999 85.694C269.24 85.9887 268.407 86.136 267.5 86.136ZM267.5 84.623C268.157 84.623 268.764 84.5097 269.319 84.283C269.886 84.0563 270.373 83.739 270.781 83.331C271.2 82.9117 271.523 82.4243 271.75 81.869C271.988 81.3137 272.107 80.7073 272.107 80.05C272.107 79.3927 271.988 78.7863 271.75 78.231C271.523 77.6757 271.2 77.194 270.781 76.786C270.373 76.3667 269.886 76.0437 269.319 75.817C268.764 75.5903 268.157 75.477 267.5 75.477C266.831 75.477 266.214 75.5903 265.647 75.817C265.092 76.0437 264.604 76.3667 264.185 76.786C263.766 77.194 263.437 77.6757 263.199 78.231C262.972 78.7863 262.859 79.3927 262.859 80.05C262.859 80.7073 262.972 81.3137 263.199 81.869C263.437 82.4243 263.766 82.9117 264.185 83.331C264.604 83.739 265.092 84.0563 265.647 84.283C266.214 84.5097 266.831 84.623 267.5 84.623ZM276.555 86V74.1H284.358L284.341 75.579H277.813L278.221 75.154L278.238 86H276.555ZM284.328 86.136C284.158 86.136 283.988 86.1247 283.818 86.102C283.648 86.0793 283.461 86.0453 283.257 86L283.376 84.487C283.557 84.5323 283.739 84.555 283.92 84.555C284.419 84.555 284.815 84.3567 285.11 83.96C285.405 83.5633 285.62 82.9627 285.756 82.158C285.903 81.3533 286 80.339 286.045 79.115L286.232 74.1H294.613V86H292.947V75.137L293.355 75.579H287.32L287.694 75.12L287.558 79.064C287.524 80.2427 287.445 81.274 287.32 82.158C287.195 83.042 287.008 83.7787 286.759 84.368C286.51 84.9573 286.187 85.3993 285.79 85.694C285.405 85.9887 284.917 86.136 284.328 86.136ZM305.375 86V82.124L305.817 82.532H302.094C301.13 82.532 300.297 82.3677 299.595 82.039C298.903 81.7103 298.371 81.24 297.997 80.628C297.634 80.0047 297.453 79.2567 297.453 78.384C297.453 77.4773 297.651 76.7067 298.048 76.072C298.444 75.426 299.005 74.9387 299.731 74.61C300.456 74.27 301.3 74.1 302.264 74.1H307.041V86H305.375ZM297.453 86L300.394 81.784H302.128L299.255 86H297.453ZM305.375 81.58V75.086L305.817 75.579H302.332C301.312 75.579 300.53 75.817 299.986 76.293C299.442 76.7577 299.17 77.449 299.17 78.367C299.17 79.2397 299.425 79.914 299.935 80.39C300.456 80.866 301.221 81.104 302.23 81.104H305.817L305.375 81.58ZM318.51 85.201V75.579H313.291L313.206 78.078C313.172 78.9167 313.115 79.7213 313.036 80.492C312.968 81.2627 312.866 81.9597 312.73 82.583C312.594 83.195 312.401 83.6993 312.152 84.096C311.914 84.4927 311.608 84.7363 311.234 84.827L309.398 84.521C309.84 84.555 310.203 84.4077 310.486 84.079C310.781 83.739 311.007 83.2687 311.166 82.668C311.336 82.056 311.461 81.3477 311.54 80.543C311.619 79.727 311.676 78.8543 311.71 77.925L311.829 74.1H320.193V85.201H318.51ZM308.973 88.601L308.99 84.521H321.944V88.601H320.363V86H310.571L310.554 88.601H308.973ZM327.524 84.708L328.119 83.45C328.641 83.858 329.213 84.164 329.836 84.368C330.471 84.572 331.1 84.6797 331.723 84.691C332.347 84.691 332.919 84.606 333.44 84.436C333.973 84.266 334.398 84.011 334.715 83.671C335.033 83.331 335.191 82.9117 335.191 82.413C335.191 81.801 334.942 81.3363 334.443 81.019C333.956 80.7017 333.276 80.543 332.403 80.543H329.751V79.166H332.284C333.044 79.166 333.633 79.013 334.052 78.707C334.483 78.3897 334.698 77.9533 334.698 77.398C334.698 76.9787 334.568 76.6273 334.307 76.344C334.058 76.0493 333.712 75.8283 333.27 75.681C332.84 75.5337 332.347 75.46 331.791 75.46C331.247 75.4487 330.686 75.5223 330.108 75.681C329.53 75.8283 328.975 76.0663 328.442 76.395L327.898 75.001C328.624 74.593 329.377 74.3097 330.159 74.151C330.953 73.981 331.718 73.93 332.454 73.998C333.191 74.0547 333.854 74.2247 334.443 74.508C335.044 74.78 335.52 75.1427 335.871 75.596C336.234 76.038 336.415 76.5707 336.415 77.194C336.415 77.7607 336.268 78.265 335.973 78.707C335.679 79.1377 335.271 79.472 334.749 79.71C334.228 79.9367 333.622 80.05 332.93 80.05L332.998 79.591C333.792 79.591 334.477 79.7213 335.055 79.982C335.645 80.2313 336.098 80.5883 336.415 81.053C336.744 81.5177 336.908 82.056 336.908 82.668C336.908 83.246 336.761 83.7617 336.466 84.215C336.172 84.657 335.769 85.031 335.259 85.337C334.761 85.6317 334.188 85.847 333.542 85.983C332.908 86.119 332.239 86.1643 331.536 86.119C330.834 86.0737 330.137 85.9377 329.445 85.711C328.765 85.4843 328.125 85.15 327.524 84.708ZM338.092 86L343.481 74.1H345.164L350.57 86H348.785L343.974 75.052H344.654L339.843 86H338.092ZM340.387 83.025L340.846 81.665H347.544L348.037 83.025H340.387ZM357.189 86V74.1H362.306C363.598 74.1 364.612 74.3607 365.349 74.882C366.086 75.4033 366.454 76.1627 366.454 77.16C366.454 78.1347 366.103 78.8827 365.4 79.404C364.697 79.914 363.774 80.169 362.629 80.169L362.935 79.659C364.261 79.659 365.275 79.9253 365.978 80.458C366.692 80.9793 367.049 81.7443 367.049 82.753C367.049 83.773 366.675 84.572 365.927 85.15C365.19 85.7167 364.091 86 362.629 86H357.189ZM358.872 84.657H362.595C363.502 84.657 364.182 84.4927 364.635 84.164C365.1 83.824 365.332 83.3083 365.332 82.617C365.332 81.9257 365.1 81.4213 364.635 81.104C364.182 80.7867 363.502 80.628 362.595 80.628H358.872V84.657ZM358.872 79.336H362.187C363.014 79.336 363.643 79.1717 364.074 78.843C364.516 78.5143 364.737 78.0327 364.737 77.398C364.737 76.752 364.516 76.2647 364.074 75.936C363.643 75.6073 363.014 75.443 362.187 75.443H358.872V79.336ZM375.244 86.136C374.337 86.136 373.493 85.983 372.711 85.677C371.94 85.371 371.272 84.946 370.705 84.402C370.138 83.8467 369.696 83.2007 369.379 82.464C369.062 81.7273 368.903 80.9227 368.903 80.05C368.903 79.1773 369.062 78.3727 369.379 77.636C369.696 76.8993 370.138 76.259 370.705 75.715C371.272 75.1597 371.94 74.729 372.711 74.423C373.482 74.117 374.326 73.964 375.244 73.964C376.151 73.964 376.984 74.117 377.743 74.423C378.514 74.7177 379.182 75.1427 379.749 75.698C380.327 76.242 380.769 76.8823 381.075 77.619C381.392 78.3557 381.551 79.166 381.551 80.05C381.551 80.934 381.392 81.7443 381.075 82.481C380.769 83.2177 380.327 83.8637 379.749 84.419C379.182 84.963 378.514 85.388 377.743 85.694C376.984 85.9887 376.151 86.136 375.244 86.136ZM375.244 84.623C375.901 84.623 376.508 84.5097 377.063 84.283C377.63 84.0563 378.117 83.739 378.525 83.331C378.944 82.9117 379.267 82.4243 379.494 81.869C379.732 81.3137 379.851 80.7073 379.851 80.05C379.851 79.3927 379.732 78.7863 379.494 78.231C379.267 77.6757 378.944 77.194 378.525 76.786C378.117 76.3667 377.63 76.0437 377.063 75.817C376.508 75.5903 375.901 75.477 375.244 75.477C374.575 75.477 373.958 75.5903 373.391 75.817C372.836 76.0437 372.348 76.3667 371.929 76.786C371.51 77.194 371.181 77.6757 370.943 78.231C370.716 78.7863 370.603 79.3927 370.603 80.05C370.603 80.7073 370.716 81.3137 370.943 81.869C371.181 82.4243 371.51 82.9117 371.929 83.331C372.348 83.739 372.836 84.0563 373.391 84.283C373.958 84.5097 374.575 84.623 375.244 84.623ZM383.406 86.136C383.236 86.136 383.066 86.1247 382.896 86.102C382.726 86.0793 382.539 86.0453 382.335 86L382.454 84.487C382.636 84.5323 382.817 84.555 382.998 84.555C383.497 84.555 383.894 84.3567 384.188 83.96C384.483 83.5633 384.698 82.9627 384.834 82.158C384.982 81.3533 385.078 80.339 385.123 79.115L385.31 74.1H393.691V86H392.025V75.137L392.433 75.579H386.398L386.772 75.12L386.636 79.064C386.602 80.2427 386.523 81.274 386.398 82.158C386.274 83.042 386.087 83.7787 385.837 84.368C385.588 84.9573 385.265 85.3993 384.868 85.694C384.483 85.9887 383.996 86.136 383.406 86.136ZM402.753 86.136C401.846 86.136 401.002 85.983 400.22 85.677C399.449 85.371 398.781 84.946 398.214 84.402C397.647 83.8467 397.205 83.2007 396.888 82.464C396.571 81.7273 396.412 80.9227 396.412 80.05C396.412 79.1773 396.571 78.3727 396.888 77.636C397.205 76.8993 397.647 76.259 398.214 75.715C398.781 75.1597 399.449 74.729 400.22 74.423C400.991 74.117 401.835 73.964 402.753 73.964C403.66 73.964 404.493 74.117 405.252 74.423C406.023 74.7177 406.691 75.1427 407.258 75.698C407.836 76.242 408.278 76.8823 408.584 77.619C408.901 78.3557 409.06 79.166 409.06 80.05C409.06 80.934 408.901 81.7443 408.584 82.481C408.278 83.2177 407.836 83.8637 407.258 84.419C406.691 84.963 406.023 85.388 405.252 85.694C404.493 85.9887 403.66 86.136 402.753 86.136ZM402.753 84.623C403.41 84.623 404.017 84.5097 404.572 84.283C405.139 84.0563 405.626 83.739 406.034 83.331C406.453 82.9117 406.776 82.4243 407.003 81.869C407.241 81.3137 407.36 80.7073 407.36 80.05C407.36 79.3927 407.241 78.7863 407.003 78.231C406.776 77.6757 406.453 77.194 406.034 76.786C405.626 76.3667 405.139 76.0437 404.572 75.817C404.017 75.5903 403.41 75.477 402.753 75.477C402.084 75.477 401.467 75.5903 400.9 75.817C400.345 76.0437 399.857 76.3667 399.438 76.786C399.019 77.194 398.69 77.6757 398.452 78.231C398.225 78.7863 398.112 79.3927 398.112 80.05C398.112 80.7073 398.225 81.3137 398.452 81.869C398.69 82.4243 399.019 82.9117 399.438 83.331C399.857 83.739 400.345 84.0563 400.9 84.283C401.467 84.5097 402.084 84.623 402.753 84.623ZM417.129 86.136C416.222 86.136 415.384 85.9887 414.613 85.694C413.854 85.388 413.191 84.963 412.624 84.419C412.069 83.8637 411.632 83.2177 411.315 82.481C410.998 81.7443 410.839 80.934 410.839 80.05C410.839 79.166 410.998 78.3557 411.315 77.619C411.632 76.8823 412.074 76.242 412.641 75.698C413.208 75.1427 413.871 74.7177 414.63 74.423C415.401 74.117 416.239 73.964 417.146 73.964C418.064 73.964 418.908 74.1227 419.679 74.44C420.461 74.746 421.124 75.205 421.668 75.817L420.563 76.888C420.11 76.412 419.6 76.0607 419.033 75.834C418.466 75.596 417.86 75.477 417.214 75.477C416.545 75.477 415.922 75.5903 415.344 75.817C414.777 76.0437 414.284 76.361 413.865 76.769C413.446 77.177 413.117 77.6643 412.879 78.231C412.652 78.7863 412.539 79.3927 412.539 80.05C412.539 80.7073 412.652 81.3193 412.879 81.886C413.117 82.4413 413.446 82.923 413.865 83.331C414.284 83.739 414.777 84.0563 415.344 84.283C415.922 84.5097 416.545 84.623 417.214 84.623C417.86 84.623 418.466 84.5097 419.033 84.283C419.6 84.045 420.11 83.6823 420.563 83.195L421.668 84.266C421.124 84.878 420.461 85.3427 419.679 85.66C418.908 85.9773 418.058 86.136 417.129 86.136ZM429.082 86.136C428.176 86.136 427.337 85.9887 426.566 85.694C425.807 85.388 425.144 84.963 424.577 84.419C424.022 83.8637 423.586 83.2177 423.268 82.481C422.951 81.7443 422.792 80.934 422.792 80.05C422.792 79.166 422.951 78.3557 423.268 77.619C423.586 76.8823 424.028 76.242 424.594 75.698C425.161 75.1427 425.824 74.7177 426.583 74.423C427.354 74.117 428.193 73.964 429.099 73.964C430.017 73.964 430.862 74.1227 431.632 74.44C432.414 74.746 433.077 75.205 433.621 75.817L432.516 76.888C432.063 76.412 431.553 76.0607 430.986 75.834C430.42 75.596 429.813 75.477 429.167 75.477C428.499 75.477 427.875 75.5903 427.297 75.817C426.731 76.0437 426.238 76.361 425.818 76.769C425.399 77.177 425.07 77.6643 424.832 78.231C424.606 78.7863 424.492 79.3927 424.492 80.05C424.492 80.7073 424.606 81.3193 424.832 81.886C425.07 82.4413 425.399 82.923 425.818 83.331C426.238 83.739 426.731 84.0563 427.297 84.283C427.875 84.5097 428.499 84.623 429.167 84.623C429.813 84.623 430.42 84.5097 430.986 84.283C431.553 84.045 432.063 83.6823 432.516 83.195L433.621 84.266C433.077 84.878 432.414 85.3427 431.632 85.66C430.862 85.9773 430.012 86.136 429.082 86.136ZM442.736 86V82.124L443.178 82.532H439.455C438.492 82.532 437.659 82.3677 436.956 82.039C436.265 81.7103 435.732 81.24 435.358 80.628C434.995 80.0047 434.814 79.2567 434.814 78.384C434.814 77.4773 435.012 76.7067 435.409 76.072C435.806 75.426 436.367 74.9387 437.092 74.61C437.817 74.27 438.662 74.1 439.625 74.1H444.402V86H442.736ZM434.814 86L437.755 81.784H439.489L436.616 86H434.814ZM442.736 81.58V75.086L443.178 75.579H439.693C438.673 75.579 437.891 75.817 437.347 76.293C436.803 76.7577 436.531 77.449 436.531 78.367C436.531 79.2397 436.786 79.914 437.296 80.39C437.817 80.866 438.582 81.104 439.591 81.104H443.178L442.736 81.58ZM448.116 86V74.1H449.51L454.848 83.093H454.1L459.37 74.1H460.764L460.781 86H459.149L459.132 76.667H459.523L454.831 84.555H454.049L449.323 76.667H449.748V86H448.116Z" fill="black"></path></svg> 