<?xml version="1.0" standalone="no"?>
<!DOCTYPE svg PUBLIC "-//W3C//DTD SVG 20010904//EN"
 "http://www.w3.org/TR/2001/REC-SVG-20010904/DTD/svg10.dtd">
<svg version="1.0" xmlns="http://www.w3.org/2000/svg"
 width="1563.000000pt" height="1563.000000pt" viewBox="0 0 1563.000000 1563.000000"
 preserveAspectRatio="xMidYMid meet">
<metadata>
Created by potrace 1.14, written by Peter Selinger 2001-2017
</metadata>
<g transform="translate(0.000000,1563.000000) scale(0.100000,-0.100000)"
fill="#000000" stroke="none">
<path d="M7415 14434 c-22 -2 -98 -8 -170 -14 -1010 -80 -2025 -413 -2895
-948 -653 -403 -1254 -936 -1736 -1542 -754 -948 -1230 -2086 -1378 -3290 -37
-297 -41 -388 -41 -830 1 -474 8 -586 60 -945 233 -1611 1062 -3093 2310
-4132 863 -718 1888 -1206 2973 -1417 174 -34 193 -34 231 5 24 24 31 39 31
71 0 57 -38 92 -116 107 -640 122 -1177 299 -1719 566 -909 447 -1678 1085
-2287 1896 -1270 1690 -1624 3910 -945 5914 379 1116 1068 2117 1979 2876
1379 1149 3159 1663 4945 1429 863 -113 1692 -404 2458 -863 804 -481 1544
-1192 2057 -1977 607 -928 946 -1922 1040 -3045 16 -197 16 -747 0 -950 -91
-1129 -447 -2161 -1065 -3085 -664 -994 -1631 -1813 -2710 -2294 -770 -344
-1518 -519 -2399 -561 l-118 -5 0 615 0 615 73 0 c241 0 751 58 1070 121 1409
278 2359 984 2972 2209 210 420 338 763 620 1665 277 887 388 1164 587 1467
74 113 116 165 230 285 91 95 99 112 78 167 -14 37 -67 68 -108 62 -19 -3 -59
-26 -95 -54 -270 -214 -648 -358 -1252 -476 -99 -19 -400 -72 -670 -116 -718
-119 -1056 -189 -1419 -295 -87 -25 -160 -44 -162 -42 -2 1 -24 68 -50 147
-300 939 -885 1781 -1619 2333 -66 50 -167 121 -224 159 -144 93 -139 94 -327
-33 -308 -209 -566 -436 -807 -709 -434 -493 -751 -1047 -967 -1689 -38 -112
-71 -205 -73 -208 -3 -2 -57 12 -122 31 -333 101 -744 188 -1430 301 -561 93
-780 134 -995 186 -422 101 -699 218 -926 390 -51 38 -105 72 -121 75 -65 13
-133 -59 -116 -124 3 -15 50 -72 102 -127 157 -164 244 -291 362 -529 130
-263 240 -564 444 -1226 252 -813 390 -1186 590 -1595 521 -1063 1269 -1726
2356 -2089 457 -152 1048 -255 1639 -284 l145 -7 5 -690 c3 -379 6 -691 8
-692 1 -1 12 -11 24 -23 20 -19 34 -20 222 -20 400 0 867 56 1311 155 1869
419 3465 1638 4388 3350 364 676 615 1463 717 2244 67 517 73 1113 14 1626
-214 1881 -1215 3565 -2774 4666 -563 398 -1205 714 -1850 910 -424 129 -819
209 -1280 260 -161 17 -268 22 -615 24 -231 2 -438 1 -460 -1z m487 -4391
c683 -464 1257 -1204 1587 -2043 85 -215 157 -439 145 -450 -5 -4 -70 -32
-144 -61 -642 -254 -1196 -656 -1593 -1154 -44 -55 -82 -101 -86 -102 -3 -1
-46 50 -96 114 -109 140 -341 377 -488 498 -315 261 -682 478 -1072 634 -88
35 -164 67 -168 71 -5 4 13 72 38 151 193 594 491 1138 874 1594 169 202 451
472 656 629 96 73 246 176 256 176 4 0 45 -25 91 -57z m-5092 -1999 c298 -102
531 -152 1345 -289 790 -133 1108 -200 1475 -311 886 -270 1524 -695 2010
-1338 40 -53 43 -60 30 -79 -495 -781 -774 -1690 -896 -2922 -9 -93 -18 -172
-20 -174 -6 -7 -235 39 -424 85 -787 194 -1431 556 -1907 1075 -490 534 -803
1152 -1158 2285 -229 732 -289 914 -351 1082 -86 231 -151 381 -230 531 -46
87 -60 121 -47 116 10 -5 88 -32 173 -61z m10144 -25 c-146 -263 -268 -590
-504 -1349 -228 -734 -363 -1109 -521 -1454 -443 -966 -1062 -1594 -1941
-1970 -821 -350 -1938 -489 -2928 -363 l-95 12 3 45 c2 25 10 108 18 185 155
1520 587 2615 1324 3356 447 449 972 748 1704 969 360 108 732 186 1481 310
759 125 1038 186 1345 293 85 29 156 53 158 52 1 -1 -19 -40 -44 -86z"/>
<path d="M4000 10202 c-37 -37 -45 -102 -36 -282 21 -454 158 -813 433 -1141
173 -207 442 -396 730 -513 123 -51 167 -56 206 -26 43 34 51 77 44 260 -12
315 -65 541 -182 785 -201 417 -557 736 -1022 915 -99 38 -136 39 -173 2z
m275 -278 c531 -267 846 -745 891 -1348 l7 -98 -24 7 c-39 11 -188 93 -274
150 -356 236 -603 615 -675 1039 -23 136 -36 296 -24 296 5 0 50 -21 99 -46z"/>
<path d="M11425 10191 c-127 -53 -276 -131 -375 -197 -419 -278 -702 -716
-780 -1207 -19 -122 -31 -330 -24 -421 6 -82 9 -93 36 -119 26 -26 34 -29 76
-25 101 10 411 165 577 288 480 358 741 912 724 1536 l-4 126 -33 29 c-44 39
-84 37 -197 -10z m22 -319 c-20 -298 -112 -572 -274 -816 -83 -125 -260 -305
-391 -396 -93 -65 -296 -180 -320 -180 -10 0 -11 19 -6 83 38 526 275 957 683
1239 71 49 286 167 305 168 5 0 6 -42 3 -98z"/>
</g>
</svg>
