<svg xmlns="http://www.w3.org/2000/svg" xmlns:xlink="http://www.w3.org/1999/xlink" width="500" zoomAndPan="magnify" viewBox="0 0 375 374.999991" height="500" preserveAspectRatio="xMidYMid meet" version="1.0"><path fill="#2e9892" d="M 292.328125 149.28125 L 256.738281 214.019531 C 252.914062 220.96875 242.300781 214.753906 246.113281 207.808594 L 281.710938 143.074219 C 285.527344 136.125 296.148438 142.34375 292.328125 149.28125 Z M 310.5 189.46875 L 310.5 204.035156 C 310.5 212.214844 305.433594 216.300781 295.300781 216.300781 C 285.171875 216.296875 280.105469 212.207031 280.105469 204.035156 L 280.105469 189.46875 C 280.105469 181.296875 285.171875 177.207031 295.300781 177.203125 C 305.433594 177.203125 310.5 181.289062 310.5 189.46875 Z M 300.65625 190.945312 C 300.742188 190.234375 300.667969 189.535156 300.4375 188.855469 C 300.207031 188.179688 299.84375 187.582031 299.34375 187.066406 C 298.726562 186.726562 298.074219 186.464844 297.394531 186.289062 C 296.710938 186.113281 296.015625 186.023438 295.308594 186.023438 C 294.605469 186.023438 293.910156 186.113281 293.226562 186.289062 C 292.542969 186.464844 291.894531 186.726562 291.277344 187.066406 C 290.777344 187.582031 290.410156 188.179688 290.179688 188.855469 C 289.949219 189.535156 289.878906 190.234375 289.960938 190.945312 L 289.960938 202.558594 C 289.878906 203.269531 289.949219 203.96875 290.179688 204.648438 C 290.410156 205.328125 290.777344 205.921875 291.277344 206.4375 C 291.894531 206.78125 292.542969 207.042969 293.226562 207.21875 C 293.910156 207.394531 294.605469 207.484375 295.308594 207.484375 C 296.015625 207.484375 296.710938 207.394531 297.394531 207.21875 C 298.078125 207.042969 298.726562 206.78125 299.34375 206.4375 C 299.84375 205.921875 300.210938 205.328125 300.441406 204.648438 C 300.671875 203.96875 300.742188 203.269531 300.65625 202.558594 Z M 242.777344 179.816406 C 232.648438 179.816406 227.582031 175.730469 227.582031 167.558594 L 227.582031 152.992188 C 227.597656 144.828125 232.664062 140.746094 242.777344 140.746094 C 252.894531 140.746094 257.957031 144.835938 257.976562 153.011719 L 257.976562 167.578125 C 257.976562 175.742188 252.910156 179.820312 242.777344 179.816406 Z M 248.121094 154.457031 C 248.203125 153.746094 248.128906 153.050781 247.898438 152.375 C 247.664062 151.699219 247.300781 151.101562 246.796875 150.589844 C 246.179688 150.246094 245.53125 149.984375 244.847656 149.808594 C 244.164062 149.632812 243.46875 149.542969 242.761719 149.542969 C 242.058594 149.542969 241.363281 149.632812 240.679688 149.808594 C 239.996094 149.984375 239.34375 150.246094 238.726562 150.589844 C 238.226562 151.105469 237.863281 151.703125 237.632812 152.382812 C 237.40625 153.0625 237.332031 153.757812 237.417969 154.46875 L 237.417969 166.09375 C 237.332031 166.804688 237.40625 167.5 237.632812 168.175781 C 237.863281 168.855469 238.226562 169.453125 238.726562 169.964844 C 239.34375 170.308594 239.996094 170.570312 240.679688 170.746094 C 241.363281 170.925781 242.058594 171.015625 242.761719 171.015625 C 243.46875 171.015625 244.164062 170.925781 244.847656 170.746094 C 245.53125 170.570312 246.179688 170.308594 246.796875 169.964844 C 247.296875 169.453125 247.664062 168.855469 247.890625 168.175781 C 248.121094 167.5 248.191406 166.804688 248.109375 166.09375 Z M 250.734375 334.496094 C 253.574219 356.261719 234.191406 368.945312 214.808594 371.546875 C 204.625 373.207031 194.382812 373.75 184.082031 373.167969 C 173.777344 372.585938 163.660156 370.898438 153.726562 368.101562 C 153.726562 368.101562 81.054688 350.78125 48.414062 309.386719 C 47.308594 307.988281 44.410156 304.316406 45.566406 301.285156 C 46.050781 300.089844 46.871094 299.207031 48.027344 298.640625 C 54.261719 294.988281 60.53125 291.382812 66.832031 287.816406 C 64.914062 285.605469 63.054688 283.34375 61.253906 281.039062 C 59.457031 278.730469 57.71875 276.375 56.042969 273.972656 C 54.367188 271.574219 52.757812 269.132812 51.210938 266.644531 C 49.664062 264.160156 48.183594 261.636719 46.769531 259.074219 C 45.355469 256.511719 44.011719 253.910156 42.738281 251.277344 C 41.460938 248.644531 40.257812 245.976562 39.121094 243.277344 C 37.984375 240.582031 36.921875 237.855469 35.933594 235.101562 C 34.941406 232.347656 34.023438 229.566406 33.179688 226.765625 C 32.335938 223.960938 31.566406 221.140625 30.871094 218.296875 C 30.175781 215.453125 29.554688 212.59375 29.011719 209.71875 C 28.464844 206.839844 28 203.953125 27.605469 201.050781 C 27.214844 198.152344 26.898438 195.242188 26.664062 192.324219 C 26.425781 189.40625 26.261719 186.488281 26.179688 183.5625 C 26.097656 180.636719 26.089844 177.707031 26.160156 174.78125 C 26.230469 171.855469 26.378906 168.933594 26.605469 166.015625 C 26.828125 163.097656 27.132812 160.1875 27.511719 157.285156 C 27.890625 154.382812 28.34375 151.492188 28.875 148.613281 C 29.40625 145.734375 30.015625 142.871094 30.695312 140.027344 C 31.378906 137.179688 32.136719 134.355469 32.96875 131.546875 C 33.800781 128.742188 34.707031 125.957031 35.683594 123.199219 C 36.664062 120.441406 37.714844 117.710938 38.835938 115.007812 C 39.960938 112.304688 41.15625 109.632812 42.417969 106.992188 C 43.683594 104.355469 45.015625 101.75 46.417969 99.179688 C 47.820312 96.609375 49.289062 94.078125 50.824219 91.585938 C 52.359375 89.09375 53.957031 86.644531 55.625 84.238281 C 57.289062 81.832031 59.015625 79.46875 60.804688 77.152344 C 62.59375 74.835938 64.445312 72.570312 66.351562 70.351562 C 68.261719 68.132812 70.230469 65.964844 72.253906 63.851562 C 74.277344 61.734375 76.355469 59.675781 78.488281 57.671875 C 80.617188 55.664062 82.804688 53.71875 85.039062 51.828125 C 87.273438 49.9375 89.558594 48.109375 91.890625 46.339844 C 94.222656 44.570312 96.597656 42.863281 99.019531 41.222656 C 101.441406 39.578125 103.90625 38 106.410156 36.484375 C 108.917969 34.972656 111.460938 33.527344 114.042969 32.148438 C 116.625 30.769531 119.238281 29.457031 121.890625 28.21875 C 124.542969 26.976562 127.222656 25.804688 129.9375 24.707031 C 132.648438 23.605469 135.390625 22.582031 138.15625 21.625 C 140.921875 20.671875 143.714844 19.789062 146.527344 18.984375 C 149.339844 18.175781 152.171875 17.445312 155.027344 16.785156 C 157.878906 16.128906 160.746094 15.546875 163.628906 15.039062 C 166.511719 14.535156 169.40625 14.105469 172.3125 13.75 C 175.214844 13.398438 178.128906 13.121094 181.050781 12.921875 C 183.96875 12.722656 186.894531 12.601562 189.820312 12.554688 C 192.746094 12.507812 195.671875 12.542969 198.597656 12.652344 C 201.523438 12.761719 204.441406 12.949219 207.359375 13.210938 C 210.273438 13.472656 213.179688 13.816406 216.078125 14.230469 C 218.972656 14.648438 221.859375 15.140625 224.730469 15.710938 C 227.601562 16.28125 230.453125 16.925781 233.289062 17.644531 C 236.128906 18.367188 238.945312 19.160156 241.738281 20.03125 C 244.535156 20.898438 247.304688 21.839844 250.050781 22.855469 C 252.796875 23.871094 255.511719 24.957031 258.199219 26.117188 C 260.886719 27.277344 263.542969 28.503906 266.164062 29.804688 C 268.789062 31.101562 271.375 32.46875 273.925781 33.90625 C 276.476562 35.339844 278.988281 36.84375 281.460938 38.410156 C 283.933594 39.980469 286.359375 41.609375 288.746094 43.308594 C 291.128906 45.003906 293.46875 46.761719 295.761719 48.582031 C 298.054688 50.402344 300.296875 52.28125 302.492188 54.21875 C 304.683594 56.15625 306.824219 58.152344 308.914062 60.203125 C 311 62.253906 313.03125 64.359375 315.007812 66.519531 C 316.984375 68.679688 318.902344 70.886719 320.765625 73.148438 C 322.625 75.40625 324.421875 77.714844 326.160156 80.070312 C 327.898438 82.425781 329.574219 84.824219 331.1875 87.269531 C 332.796875 89.710938 334.34375 92.195312 335.824219 94.722656 C 337.304688 97.246094 338.714844 99.808594 340.0625 102.410156 C 341.40625 105.007812 342.679688 107.640625 343.886719 110.308594 C 345.09375 112.976562 346.226562 115.671875 347.289062 118.398438 C 348.355469 121.128906 349.34375 123.878906 350.261719 126.660156 C 351.179688 129.4375 352.023438 132.242188 352.792969 135.066406 C 353.566406 137.886719 354.257812 140.730469 354.878906 143.589844 C 355.5 146.453125 356.042969 149.328125 356.511719 152.214844 C 356.980469 155.105469 357.371094 158.003906 357.6875 160.914062 C 358 163.824219 358.238281 166.742188 358.398438 169.664062 C 358.558594 172.585938 358.644531 175.511719 358.652344 178.4375 C 358.65625 181.367188 358.585938 184.289062 358.4375 187.214844 C 358.289062 190.136719 358.066406 193.054688 357.761719 195.964844 C 357.460938 198.878906 357.082031 201.777344 356.625 204.671875 C 356.171875 207.5625 355.640625 210.4375 355.03125 213.300781 C 354.425781 216.164062 353.742188 219.011719 352.984375 221.839844 C 352.226562 224.664062 351.394531 227.472656 350.492188 230.253906 C 349.585938 233.039062 348.605469 235.796875 347.554688 238.527344 C 346.503906 241.257812 345.378906 243.960938 344.1875 246.632812 C 342.992188 249.304688 341.730469 251.945312 340.394531 254.550781 C 339.0625 257.15625 337.660156 259.722656 336.191406 262.257812 C 334.722656 264.789062 333.1875 267.277344 331.585938 269.730469 C 329.988281 272.179688 328.324219 274.585938 326.59375 276.949219 C 324.867188 279.3125 323.078125 281.628906 321.226562 283.894531 C 319.378906 286.164062 317.46875 288.382812 315.503906 290.550781 C 313.535156 292.71875 311.511719 294.832031 309.433594 296.890625 C 307.355469 298.953125 305.222656 300.957031 303.039062 302.90625 C 300.851562 304.851562 298.617188 306.742188 296.335938 308.570312 C 294.050781 310.402344 291.71875 312.167969 289.339844 313.875 C 286.964844 315.582031 284.542969 317.226562 282.078125 318.804688 C 279.613281 320.382812 277.109375 321.898438 274.5625 323.34375 C 272.019531 324.789062 269.4375 326.167969 266.820312 327.480469 C 264.203125 328.789062 261.554688 330.03125 258.871094 331.203125 C 256.1875 332.371094 253.476562 333.472656 250.734375 334.496094 Z M 253.628906 301.371094 C 253.175781 298.730469 252.445312 296.164062 251.441406 293.679688 C 250.441406 291.191406 249.183594 288.839844 247.679688 286.621094 C 246.171875 284.402344 244.449219 282.371094 242.503906 280.523438 C 240.5625 278.671875 238.449219 277.050781 236.160156 275.65625 C 218.820312 264.058594 196.429688 260.855469 175.992188 261.875 C 134.277344 263.921875 96.917969 284.417969 61.511719 305.035156 C 67.359375 310.761719 73.539062 316.101562 80.0625 321.046875 C 86.582031 325.992188 93.386719 330.507812 100.480469 334.589844 C 107.570312 338.675781 114.890625 342.296875 122.441406 345.457031 C 129.992188 348.613281 137.710938 351.285156 145.597656 353.464844 C 162.464844 358.140625 179.648438 360.4375 197.152344 360.355469 C 206.128906 360.765625 214.917969 359.667969 223.519531 357.066406 C 231.171875 354.28125 239.351562 347.378906 238.851562 338.472656 L 236.304688 338.746094 C 227.613281 340.445312 218.84375 341.464844 209.992188 341.796875 C 201.144531 342.132812 192.320312 341.78125 183.523438 340.738281 C 174.730469 339.699219 166.066406 337.984375 157.539062 335.597656 C 149.011719 333.207031 140.71875 330.171875 132.664062 326.492188 C 125.464844 323.214844 131.726562 312.613281 138.875 315.871094 C 146.679688 319.390625 154.714844 322.25 162.988281 324.449219 C 171.257812 326.652344 179.65625 328.164062 188.175781 328.992188 C 196.695312 329.816406 205.226562 329.945312 213.765625 329.371094 C 222.304688 328.800781 230.742188 327.539062 239.078125 325.585938 L 239.078125 325.53125 C 239.613281 325.316406 240.132812 325.070312 240.640625 324.796875 C 240.867188 324.652344 241.101562 324.519531 241.339844 324.398438 C 242.386719 323.886719 243.386719 323.296875 244.339844 322.628906 C 245.292969 321.960938 246.1875 321.222656 247.027344 320.414062 C 247.863281 319.605469 248.636719 318.738281 249.335938 317.808594 C 250.039062 316.878906 250.664062 315.902344 251.210938 314.875 C 251.761719 313.847656 252.226562 312.785156 252.609375 311.683594 C 252.992188 310.582031 253.285156 309.460938 253.492188 308.316406 C 253.699219 307.167969 253.8125 306.015625 253.839844 304.851562 C 253.863281 303.6875 253.800781 302.527344 253.644531 301.371094 Z M 345.253906 160.242188 C 344.894531 157.246094 344.449219 154.265625 343.917969 151.296875 C 343.386719 148.328125 342.765625 145.378906 342.058594 142.445312 C 341.355469 139.511719 340.5625 136.605469 339.6875 133.71875 C 338.808594 130.832031 337.847656 127.976562 336.804688 125.144531 C 335.761719 122.316406 334.632812 119.519531 333.425781 116.757812 C 332.214844 113.992188 330.925781 111.269531 329.558594 108.582031 C 328.191406 105.894531 326.746094 103.246094 325.21875 100.644531 C 323.695312 98.042969 322.097656 95.488281 320.421875 92.976562 C 318.75 90.46875 317.003906 88.011719 315.183594 85.605469 C 313.367188 83.199219 311.480469 80.847656 309.523438 78.554688 C 307.566406 76.257812 305.546875 74.019531 303.457031 71.84375 C 301.371094 69.667969 299.21875 67.554688 297.007812 65.503906 C 294.796875 63.453125 292.527344 61.46875 290.199219 59.550781 C 287.871094 57.632812 285.488281 55.789062 283.050781 54.011719 C 280.617188 52.234375 278.128906 50.527344 275.59375 48.898438 C 273.054688 47.265625 270.472656 45.710938 267.84375 44.230469 C 265.21875 42.75 262.546875 41.347656 259.835938 40.027344 C 257.128906 38.703125 254.378906 37.460938 251.597656 36.296875 C 248.8125 35.136719 246 34.058594 243.152344 33.058594 C 240.304688 32.0625 237.433594 31.152344 234.53125 30.324219 C 231.632812 29.496094 228.710938 28.753906 225.765625 28.097656 C 222.824219 27.441406 219.863281 26.871094 216.886719 26.390625 C 213.910156 25.90625 210.921875 25.511719 207.917969 25.207031 C 204.917969 24.898438 201.914062 24.679688 198.898438 24.546875 C 195.886719 24.417969 192.871094 24.375 189.855469 24.421875 C 186.839844 24.46875 183.828125 24.605469 180.820312 24.828125 C 177.8125 25.050781 174.816406 25.363281 171.824219 25.761719 C 168.835938 26.160156 165.859375 26.648438 162.898438 27.222656 C 159.941406 27.796875 156.996094 28.457031 154.074219 29.203125 C 151.152344 29.949219 148.257812 30.78125 145.382812 31.699219 C 142.507812 32.613281 139.664062 33.613281 136.851562 34.699219 C 134.035156 35.78125 131.257812 36.949219 128.511719 38.195312 C 125.765625 39.441406 123.058594 40.769531 120.390625 42.175781 C 117.722656 43.582031 115.097656 45.0625 112.515625 46.625 C 109.933594 48.183594 107.402344 49.816406 104.914062 51.527344 C 102.429688 53.234375 99.996094 55.015625 97.617188 56.867188 C 95.234375 58.71875 92.910156 60.640625 90.644531 62.628906 C 88.375 64.617188 86.167969 66.667969 84.019531 68.785156 C 81.875 70.902344 79.789062 73.082031 77.769531 75.324219 C 75.75 77.5625 73.796875 79.859375 71.914062 82.214844 C 70.03125 84.570312 68.214844 86.976562 66.472656 89.4375 C 64.730469 91.898438 63.058594 94.410156 61.464844 96.96875 C 59.867188 99.527344 58.347656 102.132812 56.90625 104.78125 C 55.460938 107.429688 54.097656 110.117188 52.8125 112.84375 C 51.527344 115.574219 50.324219 118.335938 49.203125 121.136719 C 48.078125 123.9375 47.039062 126.765625 46.082031 129.625 C 45.125 132.484375 44.253906 135.371094 43.464844 138.28125 C 42.679688 141.195312 41.976562 144.125 41.363281 147.078125 C 40.746094 150.03125 40.21875 153 39.777344 155.984375 C 39.335938 158.96875 38.984375 161.960938 38.71875 164.964844 C 38.453125 167.96875 38.277344 170.980469 38.1875 173.992188 C 38.101562 177.007812 38.101562 180.023438 38.1875 183.039062 C 38.277344 186.050781 38.453125 189.0625 38.71875 192.066406 C 38.984375 195.070312 39.335938 198.0625 39.777344 201.046875 C 40.21875 204.03125 40.746094 207 41.363281 209.953125 C 41.976562 212.90625 42.679688 215.835938 43.464844 218.746094 C 44.253906 221.660156 45.125 224.546875 46.082031 227.40625 C 47.039062 230.265625 48.078125 233.09375 49.203125 235.894531 C 50.324219 238.691406 51.53125 241.457031 52.816406 244.183594 C 54.101562 246.914062 55.464844 249.601562 56.90625 252.25 C 58.351562 254.898438 59.871094 257.503906 61.464844 260.0625 C 63.0625 262.621094 64.730469 265.132812 66.476562 267.59375 C 68.21875 270.054688 70.03125 272.460938 71.917969 274.816406 C 73.800781 277.171875 75.753906 279.46875 77.773438 281.707031 C 88.347656 275.960938 99.097656 270.546875 110.195312 265.832031 C 146.050781 250.574219 187.949219 242.53125 225.523438 256.707031 C 242.648438 263.167969 258.691406 274.617188 264.316406 292.847656 C 265.410156 296.460938 265.945312 300.15625 265.929688 303.929688 C 265.910156 307.703125 265.339844 311.390625 264.214844 314.996094 C 267.636719 313.183594 270.984375 311.246094 274.257812 309.183594 C 277.53125 307.121094 280.726562 304.941406 283.835938 302.636719 C 286.949219 300.335938 289.96875 297.917969 292.894531 295.390625 C 295.824219 292.859375 298.65625 290.222656 301.386719 287.480469 C 304.117188 284.738281 306.742188 281.894531 309.257812 278.957031 C 311.773438 276.015625 314.175781 272.984375 316.464844 269.863281 C 318.753906 266.742188 320.921875 263.539062 322.972656 260.257812 C 325.019531 256.972656 326.941406 253.617188 328.734375 250.1875 C 330.53125 246.757812 332.195312 243.265625 333.726562 239.714844 C 335.261719 236.160156 336.660156 232.554688 337.917969 228.894531 C 339.179688 225.234375 340.304688 221.535156 341.285156 217.789062 C 342.269531 214.046875 343.109375 210.273438 343.808594 206.464844 C 344.507812 202.660156 345.0625 198.832031 345.476562 194.984375 C 345.886719 191.132812 346.152344 187.277344 346.273438 183.40625 C 346.394531 179.539062 346.367188 175.671875 346.199219 171.804688 C 346.027344 167.9375 345.714844 164.085938 345.253906 160.242188 Z M 89.988281 139.816406 L 84.839844 139.816406 C 84.277344 139.824219 83.730469 139.925781 83.203125 140.121094 C 82.675781 140.316406 82.195312 140.597656 81.765625 140.960938 C 81.335938 141.324219 80.980469 141.75 80.699219 142.238281 C 80.417969 142.726562 80.226562 143.246094 80.128906 143.800781 C 80.03125 144.355469 80.027344 144.910156 80.125 145.464844 C 80.21875 146.019531 80.40625 146.542969 80.683594 147.035156 C 80.960938 147.523438 81.3125 147.953125 81.742188 148.320312 C 82.167969 148.683594 82.644531 148.96875 83.171875 149.167969 L 84.199219 149.546875 C 84.664062 149.71875 85.09375 149.953125 85.484375 150.257812 C 85.875 150.558594 86.210938 150.914062 86.496094 151.320312 C 86.777344 151.722656 86.996094 152.164062 87.140625 152.636719 C 87.289062 153.105469 87.363281 153.589844 87.363281 154.085938 L 87.363281 210.574219 C 87.363281 210.894531 87.394531 211.210938 87.457031 211.527344 C 87.519531 211.839844 87.613281 212.144531 87.734375 212.441406 C 87.859375 212.734375 88.007812 213.015625 88.183594 213.28125 C 88.363281 213.546875 88.566406 213.792969 88.792969 214.019531 C 89.019531 214.246094 89.265625 214.449219 89.53125 214.625 C 89.796875 214.804688 90.078125 214.953125 90.371094 215.078125 C 90.667969 215.199219 90.972656 215.292969 91.285156 215.355469 C 91.601562 215.417969 91.917969 215.449219 92.238281 215.449219 L 93.992188 215.449219 C 94.3125 215.449219 94.628906 215.417969 94.945312 215.355469 C 95.257812 215.292969 95.5625 215.199219 95.859375 215.078125 C 96.15625 214.957031 96.4375 214.804688 96.703125 214.628906 C 96.96875 214.449219 97.214844 214.25 97.441406 214.023438 C 97.667969 213.796875 97.871094 213.550781 98.046875 213.285156 C 98.226562 213.019531 98.375 212.738281 98.5 212.441406 C 98.621094 212.144531 98.714844 211.839844 98.777344 211.527344 C 98.839844 211.214844 98.871094 210.894531 98.871094 210.574219 L 98.871094 149.886719 C 99.015625 148.492188 98.949219 147.109375 98.667969 145.738281 C 98.386719 144.367188 97.902344 143.070312 97.222656 141.84375 C 96.210938 141.015625 95.074219 140.425781 93.816406 140.074219 C 92.558594 139.71875 91.28125 139.636719 89.988281 139.816406 Z M 152.226562 146.472656 C 153.976562 149.945312 155.21875 153.589844 155.960938 157.410156 C 156.699219 161.230469 156.90625 165.074219 156.582031 168.953125 L 156.582031 172.398438 C 156.582031 176.589844 156.464844 194.238281 156.179688 197.058594 C 155.917969 199.78125 155.355469 202.441406 154.484375 205.035156 C 153.796875 207.28125 152.613281 209.226562 150.941406 210.875 C 149.214844 212.457031 147.226562 213.570312 144.976562 214.222656 C 142.058594 215.09375 139.078125 215.496094 136.035156 215.429688 C 132.996094 215.503906 130.027344 215.089844 127.128906 214.179688 C 124.890625 213.507812 122.902344 212.394531 121.164062 210.835938 C 119.460938 209.1875 118.265625 207.226562 117.582031 204.957031 C 116.714844 202.367188 116.152344 199.714844 115.894531 196.996094 C 115.609375 194.171875 115.488281 176.484375 115.488281 172.253906 L 115.488281 169.035156 C 115.234375 162.539062 115.90625 156.140625 117.507812 149.84375 C 118.191406 147.617188 119.375 145.699219 121.050781 144.085938 C 123.238281 142.558594 125.617188 141.445312 128.191406 140.746094 C 130.765625 140.050781 133.382812 139.804688 136.039062 140.015625 C 143.945312 140.023438 149.328125 142.160156 152.226562 146.472656 Z M 145.257812 165.664062 C 145.492188 161.609375 144.875 157.683594 143.402344 153.898438 C 143.011719 153.292969 142.546875 152.753906 142.003906 152.285156 C 141.460938 151.8125 140.859375 151.425781 140.207031 151.128906 C 139.550781 150.828125 138.871094 150.625 138.15625 150.523438 C 137.445312 150.417969 136.734375 150.417969 136.019531 150.515625 C 135.3125 150.417969 134.601562 150.417969 133.890625 150.519531 C 133.179688 150.621094 132.5 150.820312 131.84375 151.117188 C 131.191406 151.414062 130.59375 151.792969 130.046875 152.261719 C 129.503906 152.726562 129.03125 153.257812 128.640625 153.859375 C 127.203125 157.539062 126.585938 161.355469 126.789062 165.300781 L 126.789062 175.054688 C 126.722656 183.933594 127.3125 192.773438 128.558594 201.566406 C 129.6875 203.820312 132.226562 204.90625 136.089844 204.90625 C 139.953125 204.90625 142.457031 203.863281 143.546875 201.726562 C 144.773438 192.878906 145.335938 183.988281 145.238281 175.054688 Z M 207.230469 146.472656 C 208.976562 149.945312 210.222656 153.59375 210.960938 157.410156 C 211.699219 161.230469 211.90625 165.078125 211.582031 168.953125 L 211.582031 172.398438 C 211.582031 176.589844 211.457031 194.238281 211.179688 197.058594 C 210.917969 199.78125 210.355469 202.441406 209.484375 205.035156 C 208.796875 207.28125 207.613281 209.226562 205.941406 210.875 C 204.214844 212.457031 202.226562 213.570312 199.976562 214.222656 C 197.058594 215.09375 194.078125 215.496094 191.035156 215.429688 C 187.996094 215.503906 185.027344 215.089844 182.128906 214.179688 C 179.890625 213.507812 177.902344 212.394531 176.164062 210.835938 C 174.460938 209.1875 173.265625 207.226562 172.582031 204.957031 C 171.710938 202.359375 171.148438 199.703125 170.886719 196.976562 C 170.601562 194.152344 170.484375 176.464844 170.484375 172.234375 L 170.484375 169.015625 C 170.230469 162.519531 170.902344 156.125 172.496094 149.824219 C 173.183594 147.597656 174.367188 145.679688 176.046875 144.066406 C 178.234375 142.539062 180.613281 141.425781 183.1875 140.726562 C 185.761719 140.027344 188.378906 139.785156 191.035156 139.996094 C 198.933594 140.023438 204.328125 142.160156 207.230469 146.472656 Z M 200.257812 165.664062 C 200.488281 161.609375 199.871094 157.6875 198.40625 153.898438 C 198.019531 153.292969 197.550781 152.753906 197.007812 152.285156 C 196.464844 151.8125 195.863281 151.429688 195.210938 151.128906 C 194.554688 150.828125 193.875 150.628906 193.160156 150.523438 C 192.449219 150.417969 191.738281 150.417969 191.027344 150.515625 C 190.316406 150.417969 189.605469 150.417969 188.894531 150.519531 C 188.183594 150.621094 187.503906 150.820312 186.847656 151.113281 C 186.195312 151.410156 185.597656 151.792969 185.050781 152.257812 C 184.507812 152.726562 184.039062 153.257812 183.644531 153.859375 C 182.203125 157.539062 181.585938 161.351562 181.789062 165.300781 L 181.789062 175.054688 C 181.722656 183.933594 182.3125 192.773438 183.558594 201.566406 C 184.6875 203.820312 187.226562 204.90625 191.09375 204.90625 C 194.960938 204.90625 197.457031 203.863281 198.550781 201.726562 C 199.769531 192.878906 200.332031 183.988281 200.238281 175.054688 Z M 200.257812 165.664062 " fill-opacity="1" fill-rule="nonzero"/></svg>