<svg xmlns="http://www.w3.org/2000/svg" xmlns:xlink="http://www.w3.org/1999/xlink" width="500" zoomAndPan="magnify" viewBox="0 0 375 374.999991" height="500" preserveAspectRatio="xMidYMid meet" version="1.0"><path fill="#2e9892" d="M 187.5 8.03125 C 88.539062 8.03125 8.03125 88.539062 8.03125 187.5 C 8.03125 286.460938 88.539062 366.96875 187.5 366.96875 C 286.460938 366.96875 366.96875 286.460938 366.96875 187.5 C 366.96875 88.539062 286.460938 8.03125 187.5 8.03125 Z M 187.5 375 C 162.191406 375 137.632812 370.039062 114.515625 360.265625 C 92.1875 350.816406 72.136719 337.300781 54.917969 320.082031 C 37.699219 302.863281 24.179688 282.8125 14.734375 260.484375 C 4.957031 237.367188 0 212.808594 0 187.5 C 0 162.191406 4.957031 137.632812 14.734375 114.515625 C 24.179688 92.1875 37.699219 72.136719 54.917969 54.917969 C 72.136719 37.699219 92.1875 24.179688 114.515625 14.734375 C 137.632812 4.960938 162.191406 0 187.5 0 C 212.808594 0 237.367188 4.960938 260.484375 14.734375 C 282.8125 24.179688 302.863281 37.699219 320.082031 54.917969 C 337.300781 72.136719 350.820312 92.1875 360.265625 114.515625 C 370.039062 137.632812 375 162.191406 375 187.5 C 375 212.808594 370.039062 237.367188 360.265625 260.484375 C 350.820312 282.8125 337.300781 302.863281 320.082031 320.082031 C 302.863281 337.300781 282.8125 350.816406 260.484375 360.265625 C 237.367188 370.039062 212.808594 375 187.5 375 " fill-opacity="1" fill-rule="nonzero"/><path fill="#2e9892" d="M 187.5 32.121094 C 101.824219 32.121094 32.121094 101.824219 32.121094 187.5 C 32.121094 273.175781 101.824219 342.878906 187.5 342.878906 C 273.175781 342.878906 342.878906 273.175781 342.878906 187.5 C 342.878906 101.824219 273.175781 32.121094 187.5 32.121094 Z M 187.5 350.910156 C 165.441406 350.910156 144.039062 346.589844 123.890625 338.066406 C 104.433594 329.835938 86.957031 318.054688 71.953125 303.046875 C 56.945312 288.042969 45.164062 270.566406 36.933594 251.109375 C 28.410156 230.957031 24.089844 209.558594 24.089844 187.5 C 24.089844 165.441406 28.410156 144.042969 36.933594 123.890625 C 45.164062 104.433594 56.945312 86.957031 71.953125 71.953125 C 86.957031 56.945312 104.433594 45.164062 123.890625 36.933594 C 144.039062 28.410156 165.441406 24.089844 187.5 24.089844 C 209.558594 24.089844 230.957031 28.410156 251.109375 36.933594 C 270.566406 45.164062 288.042969 56.945312 303.046875 71.953125 C 318.054688 86.957031 329.835938 104.433594 338.066406 123.890625 C 346.589844 144.042969 350.910156 165.441406 350.910156 187.5 C 350.910156 209.558594 346.589844 230.957031 338.066406 251.109375 C 329.835938 270.566406 318.054688 288.042969 303.046875 303.046875 C 288.042969 318.054688 270.566406 329.835938 251.109375 338.066406 C 230.957031 346.589844 209.558594 350.910156 187.5 350.910156 " fill-opacity="1" fill-rule="nonzero"/><path fill="#2e9892" d="M 300.207031 304.222656 C 299.1875 304.222656 298.15625 303.835938 297.371094 303.050781 L 71.949219 77.628906 C 70.382812 76.058594 70.382812 73.519531 71.949219 71.949219 C 73.519531 70.382812 76.058594 70.382812 77.628906 71.949219 L 303.050781 297.371094 C 304.617188 298.941406 304.617188 301.480469 303.050781 303.050781 C 302.265625 303.835938 301.238281 304.222656 300.207031 304.222656 " fill-opacity="1" fill-rule="nonzero"/><path fill="#2e9892" d="M 163.332031 228.566406 L 221.566406 228.566406 L 250.683594 178.132812 L 221.566406 127.699219 L 163.332031 127.699219 L 134.214844 178.132812 Z M 223.882812 236.597656 L 161.015625 236.597656 C 159.582031 236.597656 158.253906 235.832031 157.539062 234.589844 L 126.105469 180.140625 C 125.386719 178.898438 125.386719 177.371094 126.105469 176.125 L 157.539062 121.675781 C 158.253906 120.4375 159.582031 119.671875 161.015625 119.671875 L 223.882812 119.671875 C 225.320312 119.671875 226.644531 120.4375 227.359375 121.675781 L 258.796875 176.125 C 259.511719 177.371094 259.511719 178.898438 258.796875 180.140625 L 227.359375 234.589844 C 226.644531 235.832031 225.320312 236.597656 223.882812 236.597656 " fill-opacity="1" fill-rule="nonzero"/><path fill="#2e9892" d="M 157.460938 161.953125 C 156.78125 161.953125 156.09375 161.78125 155.460938 161.414062 C 153.539062 160.304688 152.882812 157.847656 153.992188 155.929688 L 165.652344 135.730469 C 166.761719 133.8125 169.214844 133.152344 171.136719 134.261719 C 173.054688 135.371094 173.714844 137.828125 172.605469 139.746094 L 160.945312 159.945312 C 160.203125 161.230469 158.851562 161.953125 157.460938 161.953125 " fill-opacity="1" fill-rule="nonzero"/><path fill="#2e9892" d="M 145.800781 182.148438 C 145.121094 182.148438 144.429688 181.976562 143.800781 181.609375 C 141.878906 180.503906 141.222656 178.050781 142.328125 176.125 L 146.511719 168.882812 C 147.621094 166.964844 150.074219 166.304688 151.996094 167.414062 C 153.914062 168.523438 154.574219 170.980469 153.464844 172.898438 L 149.285156 180.140625 C 148.539062 181.429688 147.191406 182.148438 145.800781 182.148438 " fill-opacity="1" fill-rule="nonzero"/><path fill="#2e9892" d="M 153.910156 317.050781 C 152.582031 317.050781 151.28125 316.394531 150.515625 315.1875 L 129.910156 282.738281 C 129.105469 281.472656 129.074219 279.871094 129.820312 278.582031 L 157.496094 230.648438 C 158.179688 229.40625 159.5 228.566406 161.015625 228.566406 C 163.234375 228.566406 165.03125 230.359375 165.03125 232.574219 C 165.03125 233.285156 164.847656 233.976562 164.492188 234.589844 L 137.992188 280.488281 L 157.296875 310.882812 C 158.484375 312.753906 157.929688 315.234375 156.058594 316.425781 C 155.390625 316.851562 154.644531 317.050781 153.910156 317.050781 " fill-opacity="1" fill-rule="nonzero"/><path fill="#2e9892" d="M 223.878906 127.699219 C 223.199219 127.699219 222.507812 127.527344 221.875 127.164062 C 219.957031 126.054688 219.296875 123.597656 220.40625 121.675781 L 233.550781 98.910156 C 234.660156 96.988281 237.117188 96.332031 239.035156 97.441406 C 240.957031 98.546875 241.613281 101.003906 240.503906 102.925781 L 227.359375 125.691406 C 226.617188 126.980469 225.269531 127.699219 223.878906 127.699219 " fill-opacity="1" fill-rule="nonzero"/><path fill="#2e9892" d="M 259.636719 104.933594 L 237.027344 104.933594 C 235.171875 104.933594 233.554688 103.660156 233.125 101.851562 L 223.816406 62.894531 C 223.300781 60.738281 224.628906 58.574219 226.789062 58.058594 C 228.941406 57.542969 231.109375 58.871094 231.625 61.027344 L 240.195312 96.90625 L 259.636719 96.90625 C 261.855469 96.90625 263.652344 98.699219 263.652344 100.921875 C 263.652344 103.136719 261.855469 104.933594 259.636719 104.933594 " fill-opacity="1" fill-rule="nonzero"/><path fill="#2e9892" d="M 144.5 265.214844 C 144.324219 265.214844 144.148438 265.203125 143.96875 265.175781 L 114.839844 261.34375 C 112.640625 261.054688 111.09375 259.039062 111.382812 256.839844 C 111.671875 254.636719 113.691406 253.097656 115.886719 253.382812 L 145.019531 257.214844 C 147.214844 257.503906 148.761719 259.523438 148.476562 261.722656 C 148.207031 263.742188 146.484375 265.214844 144.5 265.214844 " fill-opacity="1" fill-rule="nonzero"/></svg>